<svg id="visual" viewBox="0 0 1920 1080" width="1920" height="1080" xmlns="http://www.w3.org/2000/svg" xmlns:xlink="http://www.w3.org/1999/xlink" version="1.1"><rect x="0" y="0" width="1920" height="1080" fill="#c9e3f7"></rect><path d="M0 695L45.7 713C91.3 731 182.7 767 274.2 757.2C365.7 747.3 457.3 691.7 548.8 682C640.3 672.3 731.7 708.7 823 717.2C914.3 725.7 1005.7 706.3 1097 710.7C1188.3 715 1279.7 743 1371.2 746.8C1462.7 750.7 1554.3 730.3 1645.8 721.7C1737.3 713 1828.7 716 1874.3 717.5L1920 719L1920 1081L1874.3 1081C1828.7 1081 1737.3 1081 1645.8 1081C1554.3 1081 1462.7 1081 1371.2 1081C1279.7 1081 1188.3 1081 1097 1081C1005.7 1081 914.3 1081 823 1081C731.7 1081 640.3 1081 548.8 1081C457.3 1081 365.7 1081 274.2 1081C182.7 1081 91.3 1081 45.7 1081L0 1081Z" fill="#4facf7"></path><path d="M0 774L45.7 779.2C91.3 784.3 182.7 794.7 274.2 798C365.7 801.3 457.3 797.7 548.8 788.2C640.3 778.7 731.7 763.3 823 757.8C914.3 752.3 1005.7 756.7 1097 763.2C1188.3 769.7 1279.7 778.3 1371.2 790.5C1462.7 802.7 1554.3 818.3 1645.8 814.5C1737.3 810.7 1828.7 787.3 1874.3 775.7L1920 764L1920 1081L1874.3 1081C1828.7 1081 1737.3 1081 1645.8 1081C1554.3 1081 1462.7 1081 1371.2 1081C1279.7 1081 1188.3 1081 1097 1081C1005.7 1081 914.3 1081 823 1081C731.7 1081 640.3 1081 548.8 1081C457.3 1081 365.7 1081 274.2 1081C182.7 1081 91.3 1081 45.7 1081L0 1081Z" fill="#6cb3f9"></path><path d="M0 787L45.7 793.8C91.3 800.7 182.7 814.3 274.2 817.7C365.7 821 457.3 814 548.8 829C640.3 844 731.7 881 823 884.3C914.3 887.7 1005.7 857.3 1097 852.5C1188.3 847.7 1279.7 868.3 1371.2 869.5C1462.7 870.7 1554.3 852.3 1645.8 838.2C1737.3 824 1828.7 814 1874.3 809L1920 804L1920 1081L1874.3 1081C1828.7 1081 1737.3 1081 1645.8 1081C1554.3 1081 1462.7 1081 1371.2 1081C1279.7 1081 1188.3 1081 1097 1081C1005.7 1081 914.3 1081 823 1081C731.7 1081 640.3 1081 548.8 1081C457.3 1081 365.7 1081 274.2 1081C182.7 1081 91.3 1081 45.7 1081L0 1081Z" fill="#83bbfb"></path><path d="M0 919L45.7 920C91.3 921 182.7 923 274.2 914.8C365.7 906.7 457.3 888.3 548.8 888.7C640.3 889 731.7 908 823 912.3C914.3 916.7 1005.7 906.3 1097 907.5C1188.3 908.7 1279.7 921.3 1371.2 920.7C1462.7 920 1554.3 906 1645.8 906.7C1737.3 907.3 1828.7 922.7 1874.3 930.3L1920 938L1920 1081L1874.3 1081C1828.7 1081 1737.3 1081 1645.8 1081C1554.3 1081 1462.7 1081 1371.2 1081C1279.7 1081 1188.3 1081 1097 1081C1005.7 1081 914.3 1081 823 1081C731.7 1081 640.3 1081 548.8 1081C457.3 1081 365.7 1081 274.2 1081C182.7 1081 91.3 1081 45.7 1081L0 1081Z" fill="#97c3fd"></path><path d="M0 955L45.7 955.7C91.3 956.3 182.7 957.7 274.2 965.5C365.7 973.3 457.3 987.7 548.8 998.3C640.3 1009 731.7 1016 823 1016.3C914.3 1016.7 1005.7 1010.3 1097 1000.3C1188.3 990.3 1279.7 976.7 1371.2 981.3C1462.7 986 1554.3 1009 1645.8 1008.2C1737.3 1007.3 1828.7 982.7 1874.3 970.3L1920 958L1920 1081L1874.3 1081C1828.7 1081 1737.3 1081 1645.8 1081C1554.3 1081 1462.7 1081 1371.2 1081C1279.7 1081 1188.3 1081 1097 1081C1005.7 1081 914.3 1081 823 1081C731.7 1081 640.3 1081 548.8 1081C457.3 1081 365.7 1081 274.2 1081C182.7 1081 91.3 1081 45.7 1081L0 1081Z" fill="#a9cbff"></path></svg>